<?xml version="1.0" encoding="UTF-8" standalone="no"?>
<!-- Created with Inkscape (http://www.inkscape.org/) -->

<svg
   xmlns:dc="http://purl.org/dc/elements/1.1/"
   xmlns:cc="http://creativecommons.org/ns#"
   xmlns:rdf="http://www.w3.org/1999/02/22-rdf-syntax-ns#"
   xmlns:svg="http://www.w3.org/2000/svg"
   xmlns="http://www.w3.org/2000/svg"
   xmlns:sodipodi="http://sodipodi.sourceforge.net/DTD/sodipodi-0.dtd"
   xmlns:inkscape="http://www.inkscape.org/namespaces/inkscape"
   width="1000"
   height="1000"
   viewBox="0 0 264.58333 264.58334"
   version="1.1"
   id="svg8"
   inkscape:version="0.92.2 5c3e80d, 2017-08-06"
   sodipodi:docname="timestamp.svg"
   inkscape:export-filename="/home/nwittstock/Projects/Timestamp/assets/timestamp.png"
   inkscape:export-xdpi="57.599998"
   inkscape:export-ydpi="57.599998">
  <defs
     id="defs2" />
  <sodipodi:namedview
     id="base"
     pagecolor="#ffffff"
     bordercolor="#666666"
     borderopacity="1.0"
     inkscape:pageopacity="0.0"
     inkscape:pageshadow="2"
     inkscape:zoom="0.70710678"
     inkscape:cx="327.49466"
     inkscape:cy="488.65991"
     inkscape:document-units="mm"
     inkscape:current-layer="layer1"
     showgrid="true"
     units="px"
     inkscape:pagecheckerboard="true"
     inkscape:window-width="1916"
     inkscape:window-height="1011"
     inkscape:window-x="0"
     inkscape:window-y="44"
     inkscape:window-maximized="0">
    <inkscape:grid
       type="xygrid"
       id="grid5055" />
  </sodipodi:namedview>
  <metadata
     id="metadata5">
    <rdf:RDF>
      <cc:Work
         rdf:about="">
        <dc:format>image/svg+xml</dc:format>
        <dc:type
           rdf:resource="http://purl.org/dc/dcmitype/StillImage" />
        <dc:title></dc:title>
      </cc:Work>
    </rdf:RDF>
  </metadata>
  <g
     inkscape:label="Layer 1"
     inkscape:groupmode="layer"
     id="layer1"
     transform="translate(0,-32.41665)">
    <circle
       style="fill:#ffffff;fill-opacity:0.98431373;stroke:#ba1734;stroke-width:5.09301472;stroke-miterlimit:4;stroke-dasharray:none;stroke-opacity:1"
       id="path5057"
       cx="132.29166"
       cy="164.70833"
       r="129.74516" />
    <circle
       style="fill:#ffffff;fill-opacity:0;stroke:#ba1734;stroke-width:5.00242329;stroke-miterlimit:4;stroke-dasharray:none;stroke-opacity:1"
       id="path5057-3"
       cx="132.29167"
       cy="164.70831"
       r="90.102959" />
    <g
       aria-label="TIMESTAMP"
       transform="rotate(90,132.70864,164.01164)"
       style="font-style:normal;font-variant:normal;font-weight:normal;font-stretch:normal;font-size:36.69434738px;line-height:1.25;font-family:'DejaVu Sans';-inkscape-font-specification:'DejaVu Sans';letter-spacing:0px;word-spacing:0px;fill:#ba1734;fill-opacity:1;stroke:none;stroke-width:0.9173587"
       id="text5076">
      <path
         d="m 129.23021,287.19531 -22.47525,-2.63662 0.35489,-3.02517 9.43142,1.10642 2.76187,-23.54296 3.61242,0.42378 -2.76188,23.54296 9.43142,1.10642 z"
         style="fill:#ba1734;fill-opacity:1;stroke-width:0.9173587"
         id="path856" />
      <path
         d="m 98.874232,282.08216 -3.466167,-1.04153 7.698025,-25.61874 3.46617,1.04152 z"
         style="fill:#ba1734;fill-opacity:1;stroke-width:0.9173587"
         id="path858" />
      <path
         d="m 82.786606,276.90823 -4.690756,-2.6612 3.045174,-19.20174 -14.951279,12.44708 -4.690756,-2.6612 13.199887,-23.26677 3.07003,1.74171 -11.590792,20.4305 15.053176,-12.55406 3.163533,1.79476 -3.053567,19.36178 11.590791,-20.43051 3.054446,1.73288 z"
         style="fill:#ba1734;fill-opacity:1;stroke-width:0.9173587"
         id="path860" />
      <path
         d="M 50.040421,255.16727 38.2976,242.99424 l 2.192178,-2.11471 9.230056,9.56822 5.699663,-5.49823 -8.844434,-9.16846 2.192179,-2.11471 8.844434,9.16847 6.976284,-6.72974 -9.453966,-9.80032 2.192178,-2.1147 11.966731,12.40515 z"
         style="fill:#ba1734;fill-opacity:1;stroke-width:0.9173587"
         id="path862" />
      <path
         d="m 23.368884,218.33127 3.056108,-1.76603 q 0.177702,2.27708 0.673234,4.10147 0.495533,1.8244 1.347171,3.29816 1.47916,2.55968 3.278822,3.38214 1.790697,0.80694 3.621259,-0.25088 1.53581,-0.8875 1.798073,-2.25998 0.237786,-1.37902 -0.769429,-4.23212 l -0.705851,-2.11673 q -1.358932,-3.89147 -0.627203,-6.52853 0.707252,-2.64361 3.530661,-4.27516 3.366373,-1.94532 6.412688,-0.68443 3.03735,1.24539 5.556405,5.6046 0.950248,1.64441 1.653684,3.72115 0.69447,2.06122 1.112818,4.46825 l -3.226753,1.86464 q -0.03223,-2.52668 -0.547094,-4.67101 -0.51486,-2.14432 -1.536826,-3.91283 -1.550877,-2.68379 -3.44845,-3.53244 -1.897573,-0.84865 -3.852241,0.28089 -1.706456,0.98611 -2.058683,2.59681 -0.361192,1.59519 0.538447,4.26214 l 0.730329,2.12327 q 1.327906,3.9094 0.74406,6.33684 -0.583845,2.42744 -3.236608,3.96039 -3.071621,1.77499 -6.08621,0.64062 -3.023554,-1.14989 -5.219883,-4.95063 -0.941284,-1.62889 -1.623675,-3.49016 -0.682391,-1.86127 -1.114853,-3.97044 z"
         style="fill:#ba1734;fill-opacity:1;stroke-width:0.9173587"
         id="path864" />
      <path
         d="m 18.55331,210.01042 -6.642241,-21.6326 2.911751,-0.89405 2.787322,9.07782 22.660274,-6.95779 1.067597,3.47697 -22.660274,6.95779 2.787322,9.07781 z"
         style="fill:#ba1734;fill-opacity:1;stroke-width:0.9173587"
         id="path866" />
      <path
         d="m 14.09438,172.2575 13.596408,4.05712 -0.6224,-9.81681 z m -3.429129,2.26407 -0.259617,-4.09481 26.051645,-11.86705 0.238077,3.75507 -6.69434,2.86605 0.76298,12.03409 7.002705,1.99764 0.241477,3.80871 z"
         style="fill:#ba1734;fill-opacity:1;stroke-width:0.9173587"
         id="path868" />
      <path
         d="m 10.762232,148.33263 1.247237,-5.24686 19.289065,-2.43143 -16.123321,-10.88618 1.247237,-5.24687 26.025131,6.18646 -0.816298,3.434 -22.85261,-5.43232 16.254486,10.95419 -0.84116,3.53858 -19.445092,2.46801 22.85261,5.43232 -0.812154,3.41656 z"
         style="fill:#ba1734;fill-opacity:1;stroke-width:0.9173587"
         id="path870" />
      <path
         d="m 26.883124,109.2501 8.736175,4.97116 2.250758,-3.95542 q 1.249436,-2.19572 0.79496,-4.04167 -0.454476,-1.84596 -2.556765,-3.04223 -2.086715,-1.1874 -3.905824,-0.63519 -1.81911,0.55221 -3.068546,2.74793 z m -4.375009,1.67468 4.040731,-7.10107 q 2.224174,-3.908695 5.13368,-4.891793 2.902795,-1.007531 6.313173,0.933083 3.441524,1.95834 4.058115,4.96851 0.625453,2.9946 -1.598721,6.9033 l -2.250758,3.95542 9.343503,5.31675 -1.789973,3.14565 z"
         style="fill:#ba1734;fill-opacity:1;stroke-width:0.9173587"
         id="path872" />
    </g>
    <circle
       style="fill:#ffffff;fill-opacity:0;stroke:#ba004f;stroke-width:0;stroke-miterlimit:4;stroke-dasharray:none;stroke-opacity:1"
       id="path5057-6"
       cx="164.70831"
       cy="-132.29167"
       r="95.25"
       transform="rotate(90)" />
    <g
       aria-label="JAN 01"
       style="font-style:normal;font-variant:normal;font-weight:normal;font-stretch:normal;font-size:31.46608734px;line-height:1.25;font-family:'DejaVu Sans';-inkscape-font-specification:'DejaVu Sans';letter-spacing:0px;word-spacing:0px;fill:#ba1734;fill-opacity:1;stroke:none;stroke-width:0.78665215"
       id="text5106">
      <path
         d="m 85.670744,101.9581 h 3.103589 v 21.34102 q 0,4.14836 -1.582523,6.0228 -1.567159,1.87445 -5.054855,1.87445 h -1.183051 v -2.61193 h 0.967951 q 2.058816,0 2.903852,-1.15233 0.845037,-1.15232 0.845037,-4.13299 z"
         style="fill:#ba1734;fill-opacity:1;stroke-width:0.78665215"
         id="path892" />
      <path
         d="m 102.06445,105.0156 -4.209815,11.41567 h 8.435005 z m -1.75153,-3.0575 h 3.51843 l 8.74228,22.9389 h -3.2265 l -2.08954,-5.88452 H 96.917412 l -2.089545,5.88452 h -3.272596 z"
         style="fill:#ba1734;fill-opacity:1;stroke-width:0.78665215"
         id="path894" />
      <path
         d="m 115.90769,101.9581 h 4.17909 l 10.17116,19.19001 V 101.9581 h 3.01141 v 22.9389 h -4.17909 L 118.91909,105.70699 V 124.897 h -3.0114 z"
         style="fill:#ba1734;fill-opacity:1;stroke-width:0.78665215"
         id="path896" />
      <path
         d="m 156.37725,104.00155 q -2.39683,0 -3.61061,2.36611 -1.19841,2.35073 -1.19841,7.08294 0,4.71684 1.19841,7.08294 1.21378,2.35074 3.61061,2.35074 2.4122,0 3.61062,-2.35074 1.21378,-2.3661 1.21378,-7.08294 0,-4.73221 -1.21378,-7.08294 -1.19842,-2.36611 -3.61062,-2.36611 z m 0,-2.45828 q 3.85644,0 5.88453,3.05749 2.04345,3.04213 2.04345,8.84984 0,5.79234 -2.04345,8.84984 -2.02809,3.04213 -5.88453,3.04213 -3.85643,0 -5.89989,-3.04213 -2.02808,-3.0575 -2.02808,-8.84984 0,-5.80771 2.02808,-8.84984 2.04346,-3.05749 5.89989,-3.05749 z"
         style="fill:#ba1734;fill-opacity:1;stroke-width:0.78665215"
         id="path898" />
      <path
         d="m 170.31267,122.28507 h 5.07022 v -17.49994 l -5.51578,1.10623 v -2.82703 l 5.48505,-1.10623 h 3.10359 v 20.32697 h 5.07022 v 2.61193 h -13.2133 z"
         style="fill:#ba1734;fill-opacity:1;stroke-width:0.78665215"
         id="path900" />
    </g>
    <g
       aria-label="0"
       style="font-style:normal;font-variant:normal;font-weight:normal;font-stretch:normal;font-size:65.00209808px;line-height:1.25;font-family:'DejaVu Sans';-inkscape-font-specification:'DejaVu Sans';letter-spacing:0px;word-spacing:0px;fill:#ba1734;fill-opacity:1;stroke:none;stroke-width:1.62505245"
       id="text5110">
      <path
         d="m 106.56053,146.63914 q -4.95133,0 -7.45874,4.88785 -2.475666,4.85612 -2.475666,14.63182 0,9.74397 2.475666,14.63182 2.50741,4.85612 7.45874,4.85612 4.98307,0 7.45873,-4.85612 2.50741,-4.88785 2.50741,-14.63182 0,-9.7757 -2.50741,-14.63182 -2.47566,-4.88785 -7.45873,-4.88785 z m 0,-5.07829 q 7.96656,0 12.15615,6.31612 4.22133,6.28439 4.22133,18.28184 0,11.96572 -4.22133,18.28184 -4.18959,6.28439 -12.15615,6.28439 -7.966569,0 -12.187896,-6.28439 -4.189589,-6.31612 -4.189589,-18.28184 0,-11.99745 4.189589,-18.28184 4.221327,-6.31612 12.187896,-6.31612 z"
         style="fill:#ba1734;fill-opacity:1;stroke-width:1.62505245"
         id="path903" />
    </g>
    <g
       aria-label="1970"
       style="font-style:normal;font-variant:normal;font-weight:normal;font-stretch:normal;font-size:40.45489883px;line-height:1.25;font-family:'DejaVu Sans';-inkscape-font-specification:'DejaVu Sans';letter-spacing:0px;word-spacing:0px;fill:#ba1734;fill-opacity:1;stroke:none;stroke-width:1.01137245"
       id="text5106-9">
      <path
         d="m 85.065428,224.23383 h 6.518612 v -22.49909 l -7.091459,1.42225 v -3.63462 l 7.051952,-1.42225 h 3.990181 v 26.13371 h 6.518616 v 3.35807 H 85.065428 Z"
         style="fill:#ba1734;fill-opacity:1;stroke-width:1.01137245"
         id="path911" />
      <path
         d="m 110.25097,226.97955 v -3.63462 q 1.50126,0.71112 3.04202,1.08643 1.54076,0.37532 3.02227,0.37532 3.95067,0 6.02477,-2.64695 2.09386,-2.66671 2.39016,-8.07913 -1.14569,1.69879 -2.90374,2.60744 -1.75805,0.90866 -3.89142,0.90866 -4.42475,0 -7.01244,-2.66671 -2.56794,-2.68645 -2.56794,-7.3285 0,-4.54327 2.68646,-7.28899 2.68646,-2.74572 7.15072,-2.74572 5.11612,0 7.80258,3.93092 2.70621,3.91117 2.70621,11.37794 0,6.97294 -3.31857,11.1409 -3.29881,4.14821 -8.88901,4.14821 -1.50126,0 -3.04202,-0.2963 -1.54076,-0.2963 -3.20005,-0.8889 z m 7.94086,-12.50388 q 2.68646,0 4.24697,-1.83707 1.58027,-1.83706 1.58027,-5.03711 0,-3.18029 -1.58027,-5.01735 -1.56051,-1.85682 -4.24697,-1.85682 -2.68646,0 -4.26673,1.85682 -1.56052,1.83706 -1.56052,5.01735 0,3.20005 1.56052,5.03711 1.58027,1.83707 4.26673,1.83707 z"
         style="fill:#ba1734;fill-opacity:1;stroke-width:1.01137245"
         id="path913" />
      <path
         d="m 134.88342,198.10012 h 18.96324 v 1.69879 l -10.70633,27.79299 h -4.16796 l 10.07422,-26.1337 h -14.16317 z"
         style="fill:#ba1734;fill-opacity:1;stroke-width:1.01137245"
         id="path915" />
      <path
         d="m 170.18269,200.72732 q -3.08152,0 -4.64204,3.04202 -1.54076,3.02227 -1.54076,9.1063 0,6.06429 1.54076,9.10631 1.56052,3.02226 4.64204,3.02226 3.10128,0 4.64204,-3.02226 1.56052,-3.04202 1.56052,-9.10631 0,-6.08403 -1.56052,-9.1063 -1.54076,-3.04202 -4.64204,-3.04202 z m 0,-3.16054 q 4.9581,0 7.56554,3.93092 2.6272,3.91117 2.6272,11.37794 0,7.44702 -2.6272,11.37794 -2.60744,3.91117 -7.56554,3.91117 -4.95809,0 -7.58529,-3.91117 -2.60745,-3.93092 -2.60745,-11.37794 0,-7.46677 2.60745,-11.37794 2.6272,-3.93092 7.58529,-3.93092 z"
         style="fill:#ba1734;fill-opacity:1;stroke-width:1.01137245"
         id="path917" />
    </g>
    <g
       aria-label="00"
       style="font-style:normal;font-variant:normal;font-weight:normal;font-stretch:normal;font-size:35.81385422px;line-height:1.25;font-family:'DejaVu Sans';-inkscape-font-specification:'DejaVu Sans';letter-spacing:0px;word-spacing:0px;fill:#ba1734;fill-opacity:1;stroke:none;stroke-width:0.89534628"
       id="text5132">
      <path
         d="m 141.54621,145.22453 q -2.72801,0 -4.1095,2.69304 -1.36401,2.67554 -1.36401,8.06161 0,5.36858 1.36401,8.06162 1.38149,2.67554 4.1095,2.67554 2.74549,0 4.1095,-2.67554 1.38149,-2.69304 1.38149,-8.06162 0,-5.38607 -1.38149,-8.06161 -1.36401,-2.69304 -4.1095,-2.69304 z m 0,-2.79795 q 4.38929,0 6.69761,3.47996 2.3258,3.46247 2.3258,10.07264 0,6.59269 -2.3258,10.07265 -2.30832,3.46247 -6.69761,3.46247 -4.3893,0 -6.7151,-3.46247 -2.30832,-3.47996 -2.30832,-10.07265 0,-6.61017 2.30832,-10.07264 2.3258,-3.47996 6.7151,-3.47996 z"
         style="fill:#ba1734;fill-opacity:1;stroke-width:0.89534628"
         id="path906" />
      <path
         d="m 164.34956,145.22453 q -2.72801,0 -4.1095,2.69304 -1.364,2.67554 -1.364,8.06161 0,5.36858 1.364,8.06162 1.38149,2.67554 4.1095,2.67554 2.74549,0 4.1095,-2.67554 1.38149,-2.69304 1.38149,-8.06162 0,-5.38607 -1.38149,-8.06161 -1.36401,-2.69304 -4.1095,-2.69304 z m 0,-2.79795 q 4.38929,0 6.69761,3.47996 2.3258,3.46247 2.3258,10.07264 0,6.59269 -2.3258,10.07265 -2.30832,3.46247 -6.69761,3.46247 -4.3893,0 -6.7151,-3.46247 -2.30831,-3.47996 -2.30831,-10.07265 0,-6.61017 2.30831,-10.07264 2.3258,-3.47996 6.7151,-3.47996 z"
         style="fill:#ba1734;fill-opacity:1;stroke-width:0.89534628"
         id="path908" />
    </g>
    <g
       aria-label="• ROG • UK •"
       transform="rotate(-107.28042,133.22503,164.90068)"
       style="font-style:normal;font-variant:normal;font-weight:normal;font-stretch:normal;font-size:36.64307785px;line-height:1.25;font-family:'DejaVu Sans';-inkscape-font-specification:'DejaVu Sans';letter-spacing:0px;word-spacing:0px;fill:#ba1700;fill-opacity:1;stroke:none;stroke-width:0.91607696"
       id="text5136">
      <path
         d="m 125.25728,273.49861 q -0.24901,2.2046 -1.94871,3.54312 -1.71949,1.35428 -3.95965,1.10125 -2.2046,-0.24902 -3.54312,-1.94872 -1.3583,-1.68392 -1.10928,-3.88853 0.25102,-2.22238 1.95273,-3.57868 1.7017,-1.35629 3.92409,-1.10527 2.22238,0.25103 3.57868,1.95274 1.35629,1.7017 1.10526,3.92409 z"
         style=""
         id="path875" />
      <path
         d="m 79.094934,258.52491 q -0.846448,-0.88939 -1.213439,-2.53743 -0.382831,-1.65637 -0.316273,-4.16804 l 0.148393,-8.16831 3.437053,1.80588 -0.162089,7.65582 q -0.07622,2.99167 0.62473,4.35032 0.68511,1.35033 2.585784,2.34897 l 3.48457,1.83084 5.251186,-9.99438 3.199469,1.68105 -12.424757,23.64755 -7.222563,-3.79483 q -4.054772,-2.13044 -5.160025,-4.87378 -1.105253,-2.74334 0.6923,-6.16455 1.173403,-2.23329 2.992721,-3.15706 1.803479,-0.9321 4.08294,-0.46205 z m 2.796612,14.14196 4.410663,-8.39464 -4.023094,-2.11379 q -2.312487,-1.21502 -4.042144,-0.76964 -1.753818,0.4529 -2.844001,2.52781 -1.090183,2.0749 -0.451514,3.74442 0.614508,1.67704 2.926996,2.89205 z"
         style=""
         id="path877" />
      <path
         d="m 49.237453,250.64475 q 2.830633,2.73528 6.542302,2.24147 3.698803,-0.50624 7.217361,-4.14747 3.506124,-3.62835 3.885367,-7.34233 0.366376,-3.7264 -2.464256,-6.46168 -2.830633,-2.73527 -6.516569,-2.2166 -3.698803,0.50625 -7.204927,4.1346 -3.518558,3.64122 -3.897801,7.3552 -0.392109,3.70154 2.438523,6.43681 z m -2.039022,2.11011 q -4.040085,-3.90398 -3.835612,-8.95623 0.192039,-5.03939 4.593345,-9.59413 4.388872,-4.54188 9.431153,-4.9193 5.029848,-0.36455 9.069932,3.53943 4.052951,3.91642 3.873778,8.96824 -0.192039,5.03938 -4.593345,9.59413 -4.401305,4.55474 -9.431153,4.91929 -5.055147,0.36499 -9.108098,-3.55143 z"
         style=""
         id="path879" />
      <path
         d="m 41.778183,205.73029 -6.28668,3.45754 2.845357,5.17358 -2.602466,1.4313 -4.569817,-8.30908 10.049283,-5.52689 q 2.310042,1.11862 4.199918,2.95839 1.874199,1.84839 3.253766,4.35679 3.017804,5.48713 1.526807,10.35022 -1.515297,4.85604 -7.237588,8.00318 -5.737968,3.15576 -10.634772,1.82624 -4.921103,-1.33658 -7.938907,-6.8237 -1.258855,-2.28892 -1.823985,-4.65308 -0.573753,-2.37983 -0.433402,-4.72359 l 3.370664,-1.8538 q -0.523666,2.575 -0.189777,4.96424 0.333889,2.38923 1.532388,4.56841 2.362509,4.29563 5.951044,5.13992 3.579913,0.82861 8.330198,-1.78395 4.734608,-2.60393 5.952012,-6.07096 1.208782,-3.48271 -1.153727,-7.77835 -0.922585,-1.67749 -1.929053,-2.8392 -1.022146,-1.15309 -2.211263,-1.86721 z"
         style=""
         id="path881" />
      <path
         d="m 24.758453,182.69465 q -2.203687,0.25701 -3.892528,-1.09518 -1.708686,-1.36788 -1.969842,-3.60711 -0.25701,-2.20369 1.095177,-3.89253 1.332343,-1.70454 3.53603,-1.96155 2.221459,-0.25909 3.928072,1.09103 1.706613,1.35011 1.965696,3.57157 0.259083,2.22146 -1.091031,3.92807 -1.350115,1.70662 -3.571574,1.9657 z"
         style=""
         id="path883" />
      <path
         d="m 11.769335,143.29152 0.930655,-3.51085 15.686395,4.15815 q 4.150755,1.10028 6.382857,0.0816 2.214807,-1.02328 3.108786,-4.39577 0.889394,-3.35519 -0.527709,-5.34121 -1.434398,-1.99061 -5.585154,-3.09089 l -15.686395,-4.15815 0.930655,-3.51084 16.118765,4.27276 q 5.050086,1.33867 6.96226,4.52951 1.916758,3.17354 0.623927,8.05068 -1.297415,4.89443 -4.539095,6.71909 -3.237096,1.80736 -8.287182,0.46869 z"
         style=""
         id="path885" />
      <path
         d="m 22.615999,110.64961 1.819503,-3.1228 9.754906,5.68369 -3.719919,-16.041518 2.341935,-4.019454 4.085254,17.724622 19.473081,-5.09586 -2.39598,4.11221 -17.573672,4.60807 11.115336,6.47635 -1.819503,3.1228 z"
         style=""
         id="path887" />
      <path
         d="m 59.533552,83.527707 q -1.399281,-1.721715 -1.164374,-3.872393 0.237508,-2.175847 1.986992,-3.597697 1.721715,-1.399282 3.872393,-1.164375 2.153277,0.209738 3.552559,1.931453 1.410567,1.7356 1.186944,3.900162 -0.223623,2.164562 -1.959223,3.575129 -1.7356,1.410566 -3.900162,1.186943 -2.164562,-0.223623 -3.575129,-1.959222 z"
         style=""
         id="path889" />
    </g>
  </g>
</svg>
